<svg width="109" height="108" viewBox="0 0 109 108" fill="none" xmlns="http://www.w3.org/2000/svg">
<path d="M108.302 88.2027C108.302 98.904 99.6268 107.579 88.9263 107.579H20.0997C9.39833 107.579 0.723663 98.904 0.723663 88.2027V19.376C0.723663 8.67467 9.39833 0 20.0997 0H88.9263C99.6268 0 108.302 8.67467 108.302 19.376V88.2027Z" fill="#242A38"/>
<path d="M82.1521 20.0391C75.9041 13.8018 67.6152 10.12 58.8143 9.6711C58.7912 9.67021 58.7681 9.66933 58.745 9.66933C58.0472 9.66933 57.4588 10.208 57.4046 10.912C57.377 11.2747 57.3628 11.664 57.3628 12.1031V44.1262C57.3628 52.3271 64.0339 58.9982 72.2339 58.9982H88.7779C89.329 58.9982 89.8259 58.6613 90.0286 58.1484C91.6846 53.9698 92.5254 49.5751 92.5254 45.0889C92.5263 35.7733 88.7459 26.6435 82.1521 20.0391Z" fill="#FFC200"/>
<path d="M81.2677 68.6196C81.041 68.1573 80.5717 67.8649 80.0579 67.8649H68.3094C56.9672 67.8649 47.7406 58.6373 47.7406 47.2951V15.2729C47.7406 15.1538 47.7432 15.0365 47.7459 14.92L47.7477 14.8276C47.7566 14.4196 47.5806 14.0293 47.2677 13.7671C47.0232 13.5627 46.7157 13.4525 46.4019 13.4525C46.3148 13.4525 46.2268 13.4613 46.1397 13.4782C39.2179 14.8533 32.9183 18.2187 27.9219 23.2089C21.2054 29.9182 17.5068 38.8533 17.5068 48.3689C17.5068 57.8773 21.2054 66.8071 27.9201 73.5111L49.1752 94.8036C49.6774 95.3138 50.2686 95.7129 50.9281 95.9849C51.5726 96.2551 52.2863 96.3973 52.9921 96.3973C53.6997 96.3973 54.3948 96.2605 55.0686 95.984C55.7281 95.7076 56.3157 95.3093 56.8037 94.8107L78.2277 73.3129C79.2534 72.2862 80.2268 71.184 81.1201 70.0373C81.4357 69.6311 81.4934 69.0809 81.2677 68.6196Z" fill="#FFC200"/>
</svg>
