<svg width="192" height="192" viewBox="0 0 192 192" fill="none" xmlns="http://www.w3.org/2000/svg">
<path d="M169.5 1.50002H22.5C10.902 1.50002 1.5 10.902 1.5 22.5V169.5C1.5 181.098 10.902 190.5 22.5 190.5H169.5C181.098 190.5 190.5 181.098 190.5 169.5V22.5C190.5 10.902 181.098 1.50002 169.5 1.50002Z" stroke="#ECECEC" stroke-width="2" stroke-linecap="round" stroke-linejoin="round"/>
<path d="M190.5 127.5L138 75L22.5 190.5" stroke="#ECECEC" stroke-width="2" stroke-linecap="round" stroke-linejoin="round"/>
<path d="M59.25 75C67.9485 75 75 67.9485 75 59.25C75 50.5515 67.9485 43.5 59.25 43.5C50.5515 43.5 43.5 50.5515 43.5 59.25C43.5 67.9485 50.5515 75 59.25 75Z" stroke="#ECECEC" stroke-width="2" stroke-linecap="round" stroke-linejoin="round"/>
</svg>
